<svg width="41" height="35" viewBox="0 0 41 35" fill="none" xmlns="http://www.w3.org/2000/svg">
<path d="M24.5503 11.6923L24.5501 12.2592V27.6754C24.5501 29.7306 24.4957 31.0424 24.3869 31.6106C24.2781 32.1668 24.0181 32.5778 23.6071 32.8438C23.2081 33.1098 22.4887 33.2428 21.449 33.2428H20.5967V34.077H31.7859V33.2428H31.2237C30.1235 33.2428 29.374 33.0977 28.975 32.8075C28.576 32.5174 28.3282 32.0761 28.2315 31.4837C28.1468 30.8792 28.1045 29.6097 28.1045 27.6754V6.12958C28.1045 4.08639 28.165 2.79277 28.2859 2.24872C28.4188 1.70468 28.6727 1.33593 29.0475 1.1425C29.4223 0.936968 30.2142 0.834203 31.4232 0.834203H31.7859V0H20.5967V0.834203H21.2495C22.4948 0.834203 23.2988 0.943012 23.6615 1.16063C24.0363 1.37825 24.2781 1.77117 24.3869 2.3394C24.4957 2.90762 24.5501 4.17102 24.5501 6.12958V11.0079V11.2338L24.5503 11.6923Z" fill="white"/>
<path d="M10.3352 6.12958C10.3352 4.17102 10.2808 2.90762 10.172 2.3394C10.0632 1.77117 9.82141 1.37825 9.44663 1.16063C9.08393 0.943012 8.27995 0.834203 7.03469 0.834203H6.38184V0H17.571V0.834203H17.2083C15.9994 0.834203 15.2075 0.936968 14.8327 1.1425C14.4579 1.33593 14.204 1.70468 14.071 2.24872C13.9501 2.79277 13.8897 4.08639 13.8897 6.12958V20.7208L10.3352 15.5222V6.12958Z" fill="white"/>
<path d="M10.3352 18.2822V27.6754C10.3352 29.7306 10.2808 31.0424 10.172 31.6106C10.0632 32.1668 9.80328 32.5778 9.39222 32.8438C8.99326 33.1098 8.27391 33.2428 7.23417 33.2428H6.38184V34.077H17.571V33.2428H17.0089C15.9087 33.2428 15.1591 33.0977 14.7601 32.8075C14.3612 32.5174 14.1133 32.0761 14.0166 31.4837C13.932 30.8792 13.8897 29.6097 13.8897 27.6754V23.4808L10.3352 18.2822Z" fill="white"/>
<path d="M22.926 22.6429L21.4786 25.1018L7.4897 4.75452H0V5.58872H0.67099C1.91625 5.58872 2.72023 5.69753 3.08293 5.91515C3.45771 6.13277 3.69951 6.52569 3.80832 7.09391C3.92922 7.66214 3.98967 8.92553 3.98967 10.8841V21.5837C3.98967 23.6148 3.91713 25.0051 3.77205 25.7547C3.62697 26.5043 3.22196 27.139 2.55701 27.6588C1.90416 28.1666 1.05182 28.4507 0 28.5112V29.3454H8.79541V28.5112C7.65895 28.4386 6.77639 28.1364 6.14772 27.6044C5.51904 27.0604 5.14425 26.4317 5.02336 25.7184C4.90246 25.0051 4.84201 23.6631 4.84201 21.6925V7.2934L19.6289 29.3454H20.4812L22.926 25.1192V22.6429Z" fill="white"/>
<path d="M24.5309 19.9166V22.3451L33.2383 7.2934V22.9438C33.2383 24.9991 33.1778 26.3108 33.0569 26.879C32.9481 27.4352 32.6882 27.8462 32.2771 28.1122C31.8782 28.3782 31.1588 28.5112 30.1191 28.5112H29.2486V29.3454H41V28.5112H39.9119C38.7996 28.5112 38.044 28.3661 37.6451 28.0759C37.2582 27.7858 37.0164 27.3445 36.9197 26.7521C36.8229 26.1476 36.7746 24.8782 36.7746 22.9438V10.8841C36.7746 8.8409 36.835 7.54728 36.9559 7.00324C37.0889 6.45919 37.3428 6.09045 37.7176 5.89701C38.0924 5.69148 38.8843 5.58872 40.0933 5.58872H41V4.75452H33.4559L24.5309 19.9166Z" fill="white"/>
</svg>
